HIERARCHY
ROOT Bip01
{
  OFFSET 15.7446 31.5610 57.6474
  CHANNELS 6 Xposition Yposition Zposition Zrotation Xrotation Yrotation
  JOINT Bip01_Footsteps
  {
    OFFSET 53.2821 -0.0001 8.1953
    CHANNELS 6 Xposition Yposition Zposition Zrotation Xrotation Yrotation
    End Site
    {
      OFFSET 0 0 0
    }
  }
  JOINT b_Hips
  {
    OFFSET 0.0000 0.0000 0.0000
    CHANNELS 6 Xposition Yposition Zposition Zrotation Xrotation Yrotation
    JOINT b_Spine
    {
      OFFSET 10.4409 -1.6220 0.0000
      CHANNELS 6 Xposition Yposition Zposition Zrotation Xrotation Yrotation
      JOINT b_Spine1
      {
        OFFSET 8.8514 -0.0090 -0.0000
        CHANNELS 6 Xposition Yposition Zposition Zrotation Xrotation Yrotation
        JOINT b_Spine2
        {
          OFFSET 11.3035 -0.0088 0.0000
          CHANNELS 6 Xposition Yposition Zposition Zrotation Xrotation Yrotation
          JOINT b_Spine3
          {
            OFFSET 11.0297 -0.0113 0.0000
            CHANNELS 6 Xposition Yposition Zposition Zrotation Xrotation Yrotation
            JOINT b__Neck
            {
              OFFSET 14.9480 -3.1935 0.0000
              CHANNELS 6 Xposition Yposition Zposition Zrotation Xrotation Yrotation
              JOINT b__Neck1
              {
                OFFSET 5.4958 -0.0043 0.0000
                CHANNELS 6 Xposition Yposition Zposition Zrotation Xrotation Yrotation
                JOINT b__Neck2
                {
                  OFFSET 5.5266 -0.0049 -0.0000
                  CHANNELS 6 Xposition Yposition Zposition Zrotation Xrotation Yrotation
                  JOINT b_Head
                  {
                    OFFSET 6.1093 -0.0000 0.0000
                    CHANNELS 6 Xposition Yposition Zposition Zrotation Xrotation Yrotation
                    JOINT Bip01_HeadNub
                    {
                      OFFSET 28.6688 0.0000 0.0000
                      CHANNELS 6 Xposition Yposition Zposition Zrotation Xrotation Yrotation
                      End Site
                      {
                        OFFSET 0 0 0
                      }
                    }
                    JOINT Dog_Jaw
                    {
                      OFFSET 0.6075 2.3575 -0.0000
                      CHANNELS 6 Xposition Yposition Zposition Zrotation Xrotation Yrotation
                      End Site
                      {
                        OFFSET 0 0 0
                      }
                    }
                  }
                }
              }
            }
            JOINT b_LeftClav
            {
              OFFSET 10.4683 2.1257 3.5190
              CHANNELS 6 Xposition Yposition Zposition Zrotation Xrotation Yrotation
              JOINT b_LeftArm
              {
                OFFSET 7.3453 0.0000 0.0000
                CHANNELS 6 Xposition Yposition Zposition Zrotation Xrotation Yrotation
                JOINT b_LeftForeArm
                {
                  OFFSET 23.3863 -0.0000 0.0000
                  CHANNELS 6 Xposition Yposition Zposition Zrotation Xrotation Yrotation
                  JOINT b_LeftHand
                  {
                    OFFSET 21.5040 0.0000 -0.0000
                    CHANNELS 6 Xposition Yposition Zposition Zrotation Xrotation Yrotation
                    JOINT b__LeftFinger
                    {
                      OFFSET 1.5926 6.2126 -0.0138
                      CHANNELS 6 Xposition Yposition Zposition Zrotation Xrotation Yrotation
                      JOINT Bip01_L_Finger0Nub
                      {
                        OFFSET 23.3657 0.0000 0.0000
                        CHANNELS 6 Xposition Yposition Zposition Zrotation Xrotation Yrotation
                        End Site
                        {
                          OFFSET 0 0 0
                        }
                      }
                    }
                  }
                }
                JOINT Dog_LeftArmor002
                {
                  OFFSET 4.2035 4.4457 12.7354
                  CHANNELS 6 Xposition Yposition Zposition Zrotation Xrotation Yrotation
                  End Site
                  {
                    OFFSET 0 0 0
                  }
                }
              }
            }
            JOINT b_RightClav
            {
              OFFSET 10.4683 2.1257 -3.5189
              CHANNELS 6 Xposition Yposition Zposition Zrotation Xrotation Yrotation
              JOINT b_RightArm
              {
                OFFSET 7.3453 0.0000 -0.0000
                CHANNELS 6 Xposition Yposition Zposition Zrotation Xrotation Yrotation
                JOINT b_RightForeArm
                {
                  OFFSET 23.3863 0.0000 0.0000
                  CHANNELS 6 Xposition Yposition Zposition Zrotation Xrotation Yrotation
                  JOINT b_RightHand
                  {
                    OFFSET 21.5040 0.0000 0.0000
                    CHANNELS 6 Xposition Yposition Zposition Zrotation Xrotation Yrotation
                    JOINT b_RightFinger
                    {
                      OFFSET 1.5926 6.2126 0.0138
                      CHANNELS 6 Xposition Yposition Zposition Zrotation Xrotation Yrotation
                      JOINT Bip01_R_Finger0Nub
                      {
                        OFFSET 23.3657 0.0000 0.0000
                        CHANNELS 6 Xposition Yposition Zposition Zrotation Xrotation Yrotation
                        End Site
                        {
                          OFFSET 0 0 0
                        }
                      }
                    }
                  }
                }
                JOINT Dog_RightArmor002
                {
                  OFFSET 4.2034 4.4457 -12.7351
                  CHANNELS 6 Xposition Yposition Zposition Zrotation Xrotation Yrotation
                  End Site
                  {
                    OFFSET 0 0 0
                  }
                }
              }
            }
          }
        }
      }
    }
    JOINT b_Tail001
    {
      OFFSET -4.7889 3.8598 0.8608
      CHANNELS 6 Xposition Yposition Zposition Zrotation Xrotation Yrotation
      JOINT b_Tail002
      {
        OFFSET 4.2212 0.0000 -0.0000
        CHANNELS 6 Xposition Yposition Zposition Zrotation Xrotation Yrotation
        JOINT b_Tail003
        {
          OFFSET 4.9750 0.0000 -0.0000
          CHANNELS 6 Xposition Yposition Zposition Zrotation Xrotation Yrotation
          JOINT b_Tail004
          {
            OFFSET 4.7171 -0.0000 0.0000
            CHANNELS 6 Xposition Yposition Zposition Zrotation Xrotation Yrotation
            JOINT b_Tail005
            {
              OFFSET 9.7173 -0.0000 -0.0001
              CHANNELS 6 Xposition Yposition Zposition Zrotation Xrotation Yrotation
              JOINT b_Tail006
              {
                OFFSET 8.2617 0.0001 0.0000
                CHANNELS 6 Xposition Yposition Zposition Zrotation Xrotation Yrotation
                JOINT b_Tail007
                {
                  OFFSET 9.7599 -0.0001 0.0000
                  CHANNELS 6 Xposition Yposition Zposition Zrotation Xrotation Yrotation
                  JOINT b_Tail008
                  {
                    OFFSET 11.1530 0.0000 -0.0000
                    CHANNELS 6 Xposition Yposition Zposition Zrotation Xrotation Yrotation
                    JOINT b_Tail009
                    {
                      OFFSET 10.3039 0.0000 0.0000
                      CHANNELS 6 Xposition Yposition Zposition Zrotation Xrotation Yrotation
                      End Site
                      {
                        OFFSET 0 0 0
                      }
                    }
                  }
                }
              }
            }
          }
        }
      }
    }
    JOINT Dog_LeftTail001
    {
      OFFSET -11.9878 -1.7857 10.1900
      CHANNELS 6 Xposition Yposition Zposition Zrotation Xrotation Yrotation
      JOINT Dog_LeftTail002
      {
        OFFSET 8.4424 0.0000 0.0000
        CHANNELS 6 Xposition Yposition Zposition Zrotation Xrotation Yrotation
        JOINT Dog_LeftTail003
        {
          OFFSET 9.9501 0.0000 -0.0000
          CHANNELS 6 Xposition Yposition Zposition Zrotation Xrotation Yrotation
          JOINT Dog_LeftTail004
          {
            OFFSET 9.4342 0.0000 -0.0000
            CHANNELS 6 Xposition Yposition Zposition Zrotation Xrotation Yrotation
            JOINT Dog_LeftTail005
            {
              OFFSET 9.7173 0.0001 0.0001
              CHANNELS 6 Xposition Yposition Zposition Zrotation Xrotation Yrotation
              JOINT Dog_LeftTail006
              {
                OFFSET 8.2618 -0.0000 -0.0000
                CHANNELS 6 Xposition Yposition Zposition Zrotation Xrotation Yrotation
                JOINT Dog_LeftTail007
                {
                  OFFSET 9.7599 0.0000 0.0000
                  CHANNELS 6 Xposition Yposition Zposition Zrotation Xrotation Yrotation
                  JOINT Dog_LeftTail008
                  {
                    OFFSET 11.1529 -0.0001 -0.0001
                    CHANNELS 6 Xposition Yposition Zposition Zrotation Xrotation Yrotation
                    JOINT Dog_LeftTail009
                    {
                      OFFSET 10.3039 -0.0000 0.0000
                      CHANNELS 6 Xposition Yposition Zposition Zrotation Xrotation Yrotation
                      End Site
                      {
                        OFFSET 0 0 0
                      }
                    }
                  }
                }
              }
            }
          }
        }
      }
    }
    JOINT b_LeftLegUpper
    {
      OFFSET -0.0000 0.0000 9.9422
      CHANNELS 6 Xposition Yposition Zposition Zrotation Xrotation Yrotation
      JOINT b_LeftLeg
      {
        OFFSET 25.9795 0.0000 -0.0000
        CHANNELS 6 Xposition Yposition Zposition Zrotation Xrotation Yrotation
        JOINT b_LeftLeg1
        {
          OFFSET 21.2087 0.0000 -0.0000
          CHANNELS 6 Xposition Yposition Zposition Zrotation Xrotation Yrotation
          JOINT b_LeftAnkle
          {
            OFFSET 10.4341 -0.0000 0.0000
            CHANNELS 6 Xposition Yposition Zposition Zrotation Xrotation Yrotation
            JOINT b_LeftToe
            {
              OFFSET 5.6676 6.5983 0.0000
              CHANNELS 6 Xposition Yposition Zposition Zrotation Xrotation Yrotation
              JOINT Bip01_L_Toe0Nub
              {
                OFFSET 8.6279 0.0000 -0.0000
                CHANNELS 6 Xposition Yposition Zposition Zrotation Xrotation Yrotation
                End Site
                {
                  OFFSET 0 0 0
                }
              }
            }
            JOINT b_LeftToe002
            {
              OFFSET 5.6741 -2.3619 -0.5306
              CHANNELS 6 Xposition Yposition Zposition Zrotation Xrotation Yrotation
              End Site
              {
                OFFSET 0 0 0
              }
            }
          }
        }
      }
      JOINT Dog_LeftArmor001
      {
        OFFSET -2.6287 -3.4254 -3.1462
        CHANNELS 6 Xposition Yposition Zposition Zrotation Xrotation Yrotation
        End Site
        {
          OFFSET 0 0 0
        }
      }
    }
    JOINT b_RightLegUpper
    {
      OFFSET 0.0000 -0.0000 -9.9422
      CHANNELS 6 Xposition Yposition Zposition Zrotation Xrotation Yrotation
      JOINT b_RightLeg
      {
        OFFSET 25.9795 0.0000 0.0000
        CHANNELS 6 Xposition Yposition Zposition Zrotation Xrotation Yrotation
        JOINT b_RightLeg1
        {
          OFFSET 21.2087 0.0000 0.0000
          CHANNELS 6 Xposition Yposition Zposition Zrotation Xrotation Yrotation
          JOINT b_RightAnkle
          {
            OFFSET 10.4341 -0.0000 -0.0000
            CHANNELS 6 Xposition Yposition Zposition Zrotation Xrotation Yrotation
            JOINT b_RightToe
            {
              OFFSET 5.6676 6.5983 -0.0000
              CHANNELS 6 Xposition Yposition Zposition Zrotation Xrotation Yrotation
              JOINT Bip01_R_Toe0Nub
              {
                OFFSET 8.6279 -0.0000 0.0000
                CHANNELS 6 Xposition Yposition Zposition Zrotation Xrotation Yrotation
                End Site
                {
                  OFFSET 0 0 0
                }
              }
            }
            JOINT b_RightToe002
            {
              OFFSET 5.6741 -2.3620 0.5304
              CHANNELS 6 Xposition Yposition Zposition Zrotation Xrotation Yrotation
              End Site
              {
                OFFSET 0 0 0
              }
            }
          }
        }
      }
      JOINT Dog_RightArmor001
      {
        OFFSET -2.6288 -3.4254 3.1460
        CHANNELS 6 Xposition Yposition Zposition Zrotation Xrotation Yrotation
        End Site
        {
          OFFSET 0 0 0
        }
      }
    }
  }
}
MOTION
Frames: 4
Frame Time: 0.00833333
-67.754 56.5718 -47.7758 86.1427 -25.5082 -174.721 53.2821 -6.35e-05 8.19533 -90 -81.2558 -180 0 0 0 -89.9999 -4.1675e-14 -90 10.4409 -1.622 1.78e-05 1.99204 -3.07741 -2.95712 8.8514 -0.0089989 0 -9.41084 -0.366748 3.60955 11.3035 -0.0087814 0 -8.73735 3.29863 3.40004 11.0297 -0.0113029 0 -3.97584 2.16769 -2.0009 14.948 -3.19349 8.6e-06 -46.3759 -0.185218 -8.46365 5.49578 -0.0042877 0 -3.37334 2.67365 2.30776 5.52657 -0.0048637 0 3.87183 10.7001 -0.154093 6.10934 -7.10543e-15 0 52.6949 -8.78734 13.4432 28.6688 -1.42109e-14 0 1.59028e-15 0 -0 0.607494 2.35752 -7.6e-06 -156.427 -0.000147608 180 10.4683 2.1257 3.51896 178.691 3.17827 -85.8102 7.34534 -7.10543e-15 1.9e-06 -5.38096 -83.7991 86.7089 23.3863 -1.9e-06 1e-06 0.993899 -0.635657 -1.23088 21.504 0 0 -90.405 -5.88821 0.513518 1.59262 6.21256 -0.0138378 -2.48831 2.59799 -5.00107 23.3657 0 1e-06 -0 -7.95139e-16 -0 4.20345 4.44573 12.7354 172.377 0.21838 -87.1877 10.4683 2.12572 -3.51895 178.418 -1.02091 91.1897 7.34534 3.55271e-15 -1.9e-06 -31.9612 60.3852 -56.1311 23.3863 1.9e-06 0 -21.916 0 1.59028e-15 21.504 3.8e-06 1e-06 -87.9802 -10.6044 8.93436 1.59262 6.21257 0.0138388 -23.9887 -12.9444 2.44384 23.3657 0 1e-06 180 0 9.54166e-15 4.20337 4.4457 -12.7351 172.377 -0.218352 87.1876 -4.78895 3.85983 0.86083 -177.717 0.188442 19.8437 4.22117 3.815e-05 -5.7e-06 -5.72849 4.11065 0.606084 4.97505 3.8e-06 -6.7e-06 -2.73815 21.0383 0.0371826 4.7171 -1.145e-05 2.86e-05 3.97569e-16 3.67752e-15 -0 9.71734 -4.2e-05 -5.72e-05 2.98177e-16 -2.68359e-15 1.59028e-15 8.26175 8.01e-05 5.7e-06 2.98177e-16 -2.69602e-15 1.59028e-15 9.75986 -6.48e-05 2.86e-05 2.98177e-16 -2.69602e-15 1.59028e-15 11.153 2.67e-05 -2.1e-05 2.98177e-16 -2.72087e-15 1.59028e-15 10.3039 1.14e-05 4.2e-05 2.98177e-16 -2.73329e-15 1.59028e-15 -11.9878 -1.78568 10.19 170.606 3.62573 1.11034 8.44238 1.53e-05 4.2e-05 -3.97569e-16 1.98785e-16 3.18055e-15 9.95005 7.6e-06 -2.86e-05 -0 0 -0 9.43418 0 -4.58e-05 3.97569e-16 9.93923e-17 -0 9.71733 6.87e-05 0.0001106 -0 0 -0 8.26175 -2.29e-05 -4.77e-05 -0 1.98785e-16 -0 9.75994 2.86e-05 3.05e-05 1.65521e-32 -2.98177e-16 3.18055e-15 11.1529 -7.25e-05 -5.91e-05 -7.95139e-16 -2.98177e-16 6.36111e-15 10.3039 -7.6e-06 0 -7.95139e-16 -9.93923e-17 3.18055e-15 -1.14e-05 1.53e-05 9.94222 -103.61 16.1432 -170.688 25.9795 1e-06 1.42109e-14 -46.0611 -0.121498 -1.20461 21.2087 1.9e-06 -1e-06 54.7463 5.45844 -6.70445 10.4341 -1.9e-06 1e-06 -14.8436 -2.83501 4.34563 5.66763 6.59832 0 89.4411 -0.929774 1.19087 8.62785 1.77636e-15 0 -180 -1.02871e-13 7.95139e-15 5.67414 -2.36194 -0.530567 -75.8081 4.38708 5.33411 -2.62874 -3.42539 -3.14618 29.7499 1.82752 90.2264 1.53e-05 -1.53e-05 -9.94222 -111.458 -17.3667 171.26 25.9795 1.06581e-14 1e-06 -52.8076 -0.858554 2.45146 21.2087 -1.42109e-14 1.9e-06 60.2742 -12.9169 10.917 10.4341 -1.9e-06 -1e-06 -11.2896 1.31869 -6.34142 5.66763 6.59831 1.42109e-14 83.6913 -1.38656 -0.120633 8.62785 2.22045e-16 1.42109e-14 1.98785e-16 0 3.18055e-15 5.67412 -2.36198 0.530355 -75.808 -4.38692 -5.33418 -2.62878 -3.42545 3.14601 29.7498 -1.82753 -90.2266
-67.754 56.5718 -47.7758 86.1427 -25.5082 -174.721 53.2821 -6.35e-05 8.19533 -90 -81.2558 -180 0 0 0 -89.9999 -4.1675e-14 -90 10.4409 -1.622 1.78e-05 1.99204 -3.07741 -2.95712 8.8514 -0.0089989 0 -9.41084 -0.366748 3.60955 11.3035 -0.0087814 0 -8.73735 3.29863 3.40004 11.0297 -0.0113029 0 -3.97584 2.16769 -2.0009 14.948 -3.19349 8.6e-06 -46.3759 -0.185218 -8.46365 5.49578 -0.0042877 0 -3.37334 2.67365 2.30776 5.52657 -0.0048637 0 3.87183 10.7001 -0.154093 6.10934 -7.10543e-15 0 52.6949 -8.78734 13.4432 28.6688 -1.42109e-14 0 1.59028e-15 0 -0 0.607494 2.35752 -7.6e-06 -156.427 -0.000147608 180 10.4683 2.1257 3.51896 178.691 3.17827 -85.8102 7.34534 -7.10543e-15 1.9e-06 -5.38096 -83.7991 86.7089 23.3863 -1.9e-06 1e-06 0.993899 -0.635657 -1.23088 21.504 0 0 -90.405 -5.88821 0.513518 1.59262 6.21256 -0.0138378 -2.48831 2.59799 -5.00107 23.3657 0 1e-06 -0 -7.95139e-16 -0 4.20345 4.44573 12.7354 172.377 0.21838 -87.1877 10.4683 2.12572 -3.51895 178.418 -1.02091 91.1897 7.34534 3.55271e-15 -1.9e-06 -31.9612 60.3852 -56.1311 23.3863 1.9e-06 0 -21.916 0 1.59028e-15 21.504 3.8e-06 1e-06 -87.9802 -10.6044 8.93436 1.59262 6.21257 0.0138388 -23.9887 -12.9444 2.44384 23.3657 0 1e-06 180 0 9.54166e-15 4.20337 4.4457 -12.7351 172.377 -0.218352 87.1876 -4.78895 3.85983 0.86083 -177.717 0.188442 19.8437 4.22117 3.815e-05 -5.7e-06 -5.72849 4.11065 0.606084 4.97505 3.8e-06 -6.7e-06 -2.73815 21.0383 0.0371826 4.7171 -1.145e-05 2.86e-05 3.97569e-16 3.67752e-15 -0 9.71734 -4.2e-05 -5.72e-05 2.98177e-16 -2.68359e-15 1.59028e-15 8.26175 8.01e-05 5.7e-06 2.98177e-16 -2.69602e-15 1.59028e-15 9.75986 -6.48e-05 2.86e-05 2.98177e-16 -2.69602e-15 1.59028e-15 11.153 2.67e-05 -2.1e-05 2.98177e-16 -2.72087e-15 1.59028e-15 10.3039 1.14e-05 4.2e-05 2.98177e-16 -2.73329e-15 1.59028e-15 -11.9878 -1.78568 10.19 170.606 3.62573 1.11034 8.44238 1.53e-05 4.2e-05 -3.97569e-16 1.98785e-16 3.18055e-15 9.95005 7.6e-06 -2.86e-05 -0 0 -0 9.43418 0 -4.58e-05 3.97569e-16 9.93923e-17 -0 9.71733 6.87e-05 0.0001106 -0 0 -0 8.26175 -2.29e-05 -4.77e-05 -0 1.98785e-16 -0 9.75994 2.86e-05 3.05e-05 1.65521e-32 -2.98177e-16 3.18055e-15 11.1529 -7.25e-05 -5.91e-05 -7.95139e-16 -2.98177e-16 6.36111e-15 10.3039 -7.6e-06 0 -7.95139e-16 -9.93923e-17 3.18055e-15 -1.14e-05 1.53e-05 9.94222 -103.61 16.1432 -170.688 25.9795 1e-06 1.42109e-14 -46.0611 -0.121498 -1.20461 21.2087 1.9e-06 -1e-06 54.7463 5.45844 -6.70445 10.4341 -1.9e-06 1e-06 -14.8436 -2.83501 4.34563 5.66763 6.59832 0 89.4411 -0.929774 1.19087 8.62785 1.77636e-15 0 -180 -1.02871e-13 7.95139e-15 5.67414 -2.36194 -0.530567 -75.8081 4.38708 5.33411 -2.62874 -3.42539 -3.14618 29.7499 1.82752 90.2264 1.53e-05 -1.53e-05 -9.94222 -111.458 -17.3667 171.26 25.9795 1.06581e-14 1e-06 -52.8076 -0.858554 2.45146 21.2087 -1.42109e-14 1.9e-06 60.2742 -12.9169 10.917 10.4341 -1.9e-06 -1e-06 -11.2896 1.31869 -6.34142 5.66763 6.59831 1.42109e-14 83.6913 -1.38656 -0.120633 8.62785 2.22045e-16 1.42109e-14 1.98785e-16 0 3.18055e-15 5.67412 -2.36198 0.530355 -75.808 -4.38692 -5.33418 -2.62878 -3.42545 3.14601 29.7498 -1.82753 -90.2266
-68.7081 56.5931 -49.7717 89.2137 -20.8751 -168.475 53.2821 -6.35e-05 8.19533 -90 -81.2558 -180 0 0 0 -89.9999 -5.43972e-14 -90 10.4409 -1.622 1.78e-05 1.47974 -3.21558 -2.92073 8.8514 -0.0089989 0 -9.5323 -0.494816 3.9429 11.3035 -0.0087814 0 -8.77754 3.23162 3.61751 11.0297 -0.0113029 0 -4.09206 2.19637 -2.0863 14.948 -3.19349 8.6e-06 -47.124 -0.204901 -8.70288 5.49578 -0.0042877 0 -3.18433 3.05427 2.2309 5.52657 -0.0048637 0 3.76722 11.1279 0.0442732 6.10934 -7.10543e-15 -1.42109e-14 52.4053 -8.48293 13.8098 28.6688 1.42109e-14 0 1.59028e-15 0 3.18055e-15 0.607494 2.35752 -7.6e-06 -156.427 -0.000147608 180 10.4683 2.1257 3.51896 178.906 3.17962 -85.6473 7.34534 0 1.9e-06 -2.37532 -83.8461 89.7973 23.3863 -1.9e-06 1e-06 1.05274 -0.63692 -1.23022 21.504 0 0 -91.2523 -5.89513 0.426543 1.59262 6.21256 -0.0138378 -3.11037 2.80502 -4.98834 23.3657 -1.77636e-15 1e-06 1.59028e-15 -3.97569e-16 1.59028e-15 4.20345 4.44573 12.7354 172.377 0.21838 -87.1877 10.4683 2.12572 -3.51895 178.384 -0.257009 92.2984 7.34534 7.10543e-15 -1.9e-06 -31.2295 59.7763 -57.6939 23.3863 1.9e-06 0 -24.5035 0 -2.98177e-16 21.504 3.8e-06 1e-06 -83.6789 -10.6284 10.551 1.59262 6.21257 0.0138388 -29.5044 -14.9571 2.28155 23.3657 -3.55271e-15 1e-06 180 -5.88403e-14 -6.36111e-15 4.20337 4.4457 -12.7351 172.377 -0.218352 87.1876 -4.78895 3.85983 0.86083 -176.355 0.236472 19.7354 4.22117 3.815e-05 -5.7e-06 -4.93131 5.33674 0.451942 4.97505 3.8e-06 -6.7e-06 -2.62337 20.9495 -0.272561 4.7171 -1.145e-05 2.86e-05 -7.95139e-16 -3.00662e-15 7.95139e-16 9.71734 -4.2e-05 -5.72e-05 -1.59028e-15 2.48481e-16 3.97569e-16 8.26175 8.01e-05 5.7e-06 -1.59028e-15 1.98785e-16 1.98785e-16 9.75986 -6.48e-05 2.86e-05 -7.95139e-16 3.40419e-15 -0 11.153 2.67e-05 -2.1e-05 -3.7932e-33 2.73329e-16 7.95139e-16 10.3039 1.14e-05 4.2e-05 -7.75882e-34 2.23633e-16 1.98785e-16 -11.9878 -1.78568 10.19 170.606 3.62573 1.11034 8.44238 1.53e-05 4.2e-05 7.95139e-16 9.93923e-16 -3.18055e-15 9.95005 7.6e-06 -2.86e-05 7.95139e-16 0 -6.36111e-15 9.43418 0 -4.58e-05 3.97569e-16 3.97569e-16 -6.36111e-15 9.71733 6.87e-05 0.0001106 7.95139e-16 7.95139e-16 -6.36111e-15 8.26175 -2.29e-05 -4.77e-05 7.95139e-16 7.95139e-16 -6.36111e-15 9.75994 2.86e-05 3.05e-05 3.97569e-16 3.97569e-16 -6.36111e-15 11.1529 -7.25e-05 -5.91e-05 -3.97569e-16 1.98785e-16 -3.18055e-15 10.3039 -7.6e-06 1.42109e-14 -3.97569e-16 9.93923e-16 -3.18055e-15 -1.14e-05 1.53e-05 9.94222 -104.103 16.9438 -170.841 25.9795 1e-06 -1.42109e-14 -45.9105 -0.124665 -1.20429 21.2087 1.9e-06 -1e-06 54.6967 5.94553 -6.89089 10.4341 -1.9e-06 1e-06 -14.5493 -2.81263 4.36013 5.66763 6.59832 0 89.4053 -0.945429 1.11327 8.62785 1.77636e-15 1.42109e-14 -180 1.22352e-13 1.59028e-15 5.67414 -2.36194 -0.530567 -75.8081 4.38708 5.33411 -2.62874 -3.42539 -3.14618 29.7499 1.82752 90.2264 1.53e-05 -1.53e-05 -9.94222 -112.751 -16.7683 170.866 25.9795 -3.55271e-15 1e-06 -54.3009 -0.922178 2.42826 21.2087 3.55271e-15 1.9e-06 61.3555 -12.8468 10.7032 10.4341 -1.9e-06 -1e-06 -11.27 0.717204 -6.41158 5.66763 6.59831 -1.42109e-14 83.3511 -1.25044 -0.31349 8.62785 0 0 -3.97569e-16 5.96354e-16 3.18055e-15 5.67412 -2.36198 0.530355 -75.808 -4.38692 -5.33418 -2.62878 -3.42545 3.14601 29.7498 -1.82753 -90.2266
-68.5856 56.5144 -49.6917 88.6128 -20.8653 -168.253 53.2821 -6.35e-05 8.19533 -90 -81.2558 -180 0 0 0 -89.9999 -7.98417e-14 -90 10.4409 -1.622 1.78e-05 1.02746 -3.32541 -3.07961 8.8514 -0.0089989 1.42109e-14 -9.63548 -0.661379 4.24857 11.3035 -0.0087814 0 -8.80078 3.09911 3.81635 11.0297 -0.0113029 0 -4.11832 2.2047 -2.25954 14.948 -3.19349 8.6e-06 -47.7714 -0.0501092 -9.04207 5.49578 -0.0042877 0 -3.01148 3.01708 2.03417 5.52657 -0.0048637 1.42109e-14 3.80793 11.3045 -0.0181719 6.10934 -3.55271e-14 0 52.2634 -8.50248 13.9188 28.6688 1.42109e-14 0 -7.95139e-16 1.98785e-16 -0 0.607494 2.35752 -7.6e-06 -156.427 -0.000147608 180 10.4683 2.1257 3.51896 179.046 3.21623 -85.4392 7.34534 0 1.9e-06 -1.32634 -83.7892 90.789 23.3863 -1.9e-06 1e-06 1.17342 -0.639511 -1.22888 21.504 -1.42109e-14 -1.42109e-14 -92.0833 -5.90066 0.341145 1.59262 6.21256 -0.0138378 -3.24483 2.97475 -5.15134 23.3657 -1.77636e-15 1e-06 1.59028e-15 1.98785e-15 -1.59028e-15 4.20345 4.44573 12.7354 172.377 0.21838 -87.1877 10.4683 2.12572 -3.51895 178.314 0.508167 93.3851 7.34534 -1.42109e-14 -1.9e-06 -30.1336 59.1343 -59.634 23.3863 1.9e-06 0 -27.881 -7.95139e-16 -5.36719e-15 21.504 3.8e-06 1e-06 -77.4794 -9.84997 12.0943 1.59262 6.21257 0.0138388 -29.9863 -13.8371 2.24389 23.3657 3.55271e-15 1e-06 180 1.11319e-14 9.54166e-15 4.20337 4.4457 -12.7351 172.377 -0.218352 87.1876 -4.78895 3.85983 0.86083 -174.93 0.41192 19.3977 4.22117 3.815e-05 -5.7e-06 -3.74852 6.36405 -0.376359 4.97505 3.8e-06 -6.7e-06 -2.69916 20.9123 -0.165585 4.7171 -1.145e-05 2.86e-05 3.18055e-15 5.06901e-15 -1.19271e-15 9.71734 -4.2e-05 -5.72e-05 3.72423e-32 1.78906e-15 -1.19271e-15 8.26175 8.01e-05 5.7e-06 -0 1.83876e-15 -0 9.75986 -6.48e-05 2.86e-05 -1.59028e-15 -4.62174e-15 -0 11.153 2.67e-05 -2.1e-05 -1.59028e-15 -1.39149e-15 -3.97569e-16 10.3039 1.14e-05 4.2e-05 9.65542e-33 -1.39149e-15 3.97569e-16 -11.9878 -1.78568 10.19 170.606 3.62573 1.11034 8.44238 1.53e-05 4.2e-05 -2.20695e-32 -3.97569e-16 -3.18055e-15 9.95005 7.6e-06 -2.86e-05 3.97569e-16 -1.98785e-16 -0 9.43418 0 -4.58e-05 3.97569e-16 -3.97569e-16 -0 9.71733 6.87e-05 0.0001106 1.10348e-32 1.98785e-16 -3.18055e-15 8.26175 -2.29e-05 -4.77e-05 -3.97569e-16 -1.98785e-16 -0 9.75994 2.86e-05 3.05e-05 -0 1.98785e-16 -0 11.1529 -7.25e-05 -5.91e-05 3.97569e-16 1.98785e-16 -6.36111e-15 10.3039 -7.6e-06 1.42109e-14 1.10348e-32 1.98785e-16 -3.18055e-15 -1.14e-05 1.53e-05 9.94222 -104.509 17.8948 -171.028 25.9795 1e-06 -1.42109e-14 -45.8013 -0.126961 -1.20405 21.2087 1.9e-06 -1e-06 54.6557 5.85542 -6.89195 10.4341 -1.9e-06 1e-06 -14.158 -2.78277 4.37923 5.66763 6.59832 -1.42109e-14 89.4703 -0.903899 1.09488 8.62785 1.77636e-15 1.42109e-14 -180 3.47873e-15 -7.95139e-16 5.67414 -2.36194 -0.530567 -75.8081 4.38708 5.33411 -2.62874 -3.42539 -3.14618 29.7499 1.82752 90.2264 1.53e-05 -1.53e-05 -9.94222 -114.045 -16.2305 170.421 25.9795 3.55271e-15 1e-06 -55.6842 -0.980555 2.40529 21.2087 0 1.9e-06 62.0602 -12.8298 10.4239 10.4341 -1.9e-06 -1e-06 -11.5092 0.628333 -6.42246 5.66763 6.59831 0 83.2877 -1.89659 -0.0313487 8.62785 0 0 3.97569e-16 -3.97569e-16 3.18055e-15 5.67412 -2.36198 0.530356 -75.808 -4.38692 -5.33418 -2.62878 -3.42545 3.14601 29.7498 -1.82753 -90.2266
